<svg id="Layer_4" data-name="Layer 4" xmlns="http://www.w3.org/2000/svg" viewBox="0 0 772.36 614.94"><defs><style>.cls-1{fill:#fff;}</style></defs><title>DesignVally_logo_1</title><path class="cls-1" d="M310.58,223.75a2.8,2.8,0,0,0,1-.18,18.7,18.7,0,0,1,6.25-1.23c3,.11,10.78,4.91,11.35,11.89s-.24,18.35-15.57,22.81c-14.26,4.15-23.4-11.43-23-14.12,0-.26-.17-.49-.2-.76-.3-2.35-1.41-14.64,6.74-19a2.78,2.78,0,0,1,.5-.21c1.26-.41,6.71-2,8.91-.24a3,3,0,0,0,1,.53l1.42.43a3.07,3.07,0,0,0,.85.13Z" transform="translate(-99 -204.53)"/><path class="cls-1" d="M295,442.65s-27.23,2.9-8.66,33.13l-21.75,3.28-.83-40.43L298,440.45Z" transform="translate(-99 -204.53)"/><path class="cls-1" d="M198.05,253.24a2.79,2.79,0,0,0,1-.17,18.4,18.4,0,0,1,6.25-1.23c3,.11,10.77,4.91,11.35,11.89s-.25,18.35-15.57,22.81c-14.27,4.15-23.41-11.43-23-14.12,0-.26-.17-.49-.21-.76-.29-2.35-1.4-14.64,6.74-19.05a3.11,3.11,0,0,1,.5-.21c1.27-.41,6.71-2,8.91-.24a2.9,2.9,0,0,0,1,.52l1.43.44a3,3,0,0,0,.85.12Z" transform="translate(-99 -204.53)"/><path class="cls-1" d="M214.63,232.68a56.56,56.56,0,0,1-10.7,5.15c-6.28,2.27-6.08,6.49-6.08,6.49v4.32s8.75-4.06,10.4-5.45c0,0,2.63-1,4.87-4.9S214.63,232.68,214.63,232.68Z" transform="translate(-99 -204.53)"/><path class="cls-1" d="M179.5,232.68a56.86,56.86,0,0,0,10.71,5.15c6.28,2.27,6.07,6.49,6.07,6.49v4.32s-8.75-4.06-10.4-5.45c0,0-2.62-1-4.86-4.9S179.5,232.68,179.5,232.68Z" transform="translate(-99 -204.53)"/><path class="cls-1" d="M328.19,204.53a57.29,57.29,0,0,1-10.7,5.15c-6.28,2.26-6.08,6.48-6.08,6.48v4.33s8.75-4.06,10.4-5.46c0,0,2.63-1,4.86-4.89S328.19,204.53,328.19,204.53Z" transform="translate(-99 -204.53)"/><path class="cls-1" d="M293.06,204.53a57.29,57.29,0,0,0,10.7,5.15c6.28,2.26,6.08,6.48,6.08,6.48v4.33s-8.75-4.06-10.4-5.46c0,0-2.62-1-4.86-4.89S293.06,204.53,293.06,204.53Z" transform="translate(-99 -204.53)"/><path class="cls-1" d="M134.13,322.62a2.75,2.75,0,0,0,1-.17,18.27,18.27,0,0,1,6.25-1.23c3,.11,10.78,4.91,11.35,11.89s-.24,18.35-15.56,22.81c-14.27,4.15-23.41-11.43-23-14.12,0-.26-.17-.5-.2-.76-.3-2.35-1.41-14.65,6.74-19.05a2.21,2.21,0,0,1,.5-.21c1.26-.41,6.71-2,8.91-.25a2.83,2.83,0,0,0,1,.53l1.42.44a3.12,3.12,0,0,0,.85.12Z" transform="translate(-99 -204.53)"/><path class="cls-1" d="M150.72,302.06A57.6,57.6,0,0,1,140,307.21c-6.28,2.26-6.07,6.49-6.07,6.49V318s8.75-4.06,10.4-5.46c0,0,2.62-1,4.86-4.89S150.72,302.06,150.72,302.06Z" transform="translate(-99 -204.53)"/><path class="cls-1" d="M115.58,302.06a57.6,57.6,0,0,0,10.71,5.15c6.28,2.26,6.08,6.49,6.08,6.49V318s-8.75-4.06-10.4-5.46c0,0-2.63-1-4.87-4.89S115.58,302.06,115.58,302.06Z" transform="translate(-99 -204.53)"/><path class="cls-1" d="M119.38,434.36a2.75,2.75,0,0,0,1-.17,18.27,18.27,0,0,1,6.25-1.23c3,.11,10.78,4.91,11.35,11.89s-.24,18.35-15.56,22.81c-14.27,4.15-23.41-11.43-23-14.12,0-.26-.17-.5-.2-.76-.3-2.35-1.41-14.64,6.74-19a2.21,2.21,0,0,1,.5-.21c1.26-.41,6.71-2,8.91-.24a3,3,0,0,0,1,.52l1.43.44a3,3,0,0,0,.84.12Z" transform="translate(-99 -204.53)"/><path class="cls-1" d="M136,413.8A56.86,56.86,0,0,1,125.26,419c-6.28,2.27-6.07,6.49-6.07,6.49v4.32s8.75-4.06,10.4-5.46c0,0,2.62-1,4.86-4.89S136,413.8,136,413.8Z" transform="translate(-99 -204.53)"/><path class="cls-1" d="M100.83,413.8A56.86,56.86,0,0,0,111.54,419c6.28,2.27,6.08,6.49,6.08,6.49v4.32s-8.75-4.06-10.4-5.46c0,0-2.63-1-4.87-4.89S100.83,413.8,100.83,413.8Z" transform="translate(-99 -204.53)"/><path class="cls-1" d="M410.36,332a2.8,2.8,0,0,0,1-.18,18.65,18.65,0,0,1,6.25-1.23c3,.11,10.77,4.91,11.35,11.89s-.25,18.35-15.57,22.81c-14.27,4.15-23.4-11.43-23-14.12,0-.26-.17-.49-.21-.76-.29-2.35-1.4-14.64,6.74-19.05a4.4,4.4,0,0,1,.5-.21c1.27-.41,6.71-2,8.91-.24a2.87,2.87,0,0,0,1,.53l1.42.43a2.74,2.74,0,0,0,.85.13Z" transform="translate(-99 -204.53)"/><path class="cls-1" d="M427,311.39a57.23,57.23,0,0,1-10.71,5.14c-6.28,2.27-6.07,6.49-6.07,6.49v4.32s8.74-4,10.39-5.45c0,0,2.63-1,4.87-4.89S427,311.39,427,311.39Z" transform="translate(-99 -204.53)"/><path class="cls-1" d="M391.81,311.39a57.23,57.23,0,0,0,10.71,5.14c6.28,2.27,6.07,6.49,6.07,6.49v4.32s-8.75-4-10.4-5.45c0,0-2.62-1-4.86-4.89S391.81,311.39,391.81,311.39Z" transform="translate(-99 -204.53)"/><path class="cls-1" d="M334.29,463.53a2.84,2.84,0,0,0,1-.18,18.64,18.64,0,0,1,6.24-1.23c3,.11,10.78,4.91,11.36,11.89s-.25,18.35-15.57,22.81c-14.27,4.15-23.41-11.43-23-14.12,0-.26-.18-.49-.21-.76-.29-2.35-1.4-14.64,6.74-19.05a4.4,4.4,0,0,1,.5-.21c1.27-.41,6.71-2,8.91-.24a2.83,2.83,0,0,0,1,.53l1.43.43a3,3,0,0,0,.85.13Z" transform="translate(-99 -204.53)"/><path class="cls-1" d="M350.87,443a56.92,56.92,0,0,1-10.7,5.14c-6.28,2.27-6.08,6.49-6.08,6.49v4.32s8.75-4.06,10.4-5.45c0,0,2.63-1,4.87-4.89S350.87,443,350.87,443Z" transform="translate(-99 -204.53)"/><path class="cls-1" d="M315.74,443a56.92,56.92,0,0,0,10.7,5.14c6.28,2.27,6.08,6.49,6.08,6.49v4.32s-8.75-4.06-10.4-5.45c0,0-2.62-1-4.86-4.89S315.74,443,315.74,443Z" transform="translate(-99 -204.53)"/><path class="cls-1" d="M352.1,289.85a2.8,2.8,0,0,0,1-.18,18.65,18.65,0,0,1,6.25-1.23c3,.11,10.78,4.91,11.35,11.89s-.25,18.35-15.57,22.81c-14.27,4.15-23.4-11.43-23-14.12,0-.26-.17-.49-.21-.76-.29-2.35-1.4-14.64,6.74-19.05a4.4,4.4,0,0,1,.5-.21c1.27-.41,6.71-2,8.91-.24a2.87,2.87,0,0,0,1,.53l1.42.43a3.07,3.07,0,0,0,.85.13Z" transform="translate(-99 -204.53)"/><path class="cls-1" d="M368.69,269.29A57.23,57.23,0,0,1,358,274.43c-6.28,2.27-6.07,6.49-6.07,6.49v4.32s8.74-4.06,10.39-5.45c0,0,2.63-1,4.87-4.89S368.69,269.29,368.69,269.29Z" transform="translate(-99 -204.53)"/><path class="cls-1" d="M333.55,269.29a57.23,57.23,0,0,0,10.71,5.14c6.28,2.27,6.07,6.49,6.07,6.49v4.32s-8.75-4.06-10.4-5.45c0,0-2.62-1-4.86-4.89S333.55,269.29,333.55,269.29Z" transform="translate(-99 -204.53)"/><path class="cls-1" d="M343.79,383.31a2.74,2.74,0,0,0,.89-.16,16.72,16.72,0,0,1,5.6-1.11c2.72.1,9.67,4.41,10.19,10.67s-.22,16.47-14,20.47c-12.8,3.72-21-10.26-20.62-12.67,0-.24-.15-.45-.18-.68-.27-2.11-1.26-13.14,6-17.09a2.88,2.88,0,0,1,.45-.19c1.14-.37,6-1.82,8-.22a2.58,2.58,0,0,0,.88.47l1.28.39a2.42,2.42,0,0,0,.76.12Z" transform="translate(-99 -204.53)"/><path class="cls-1" d="M358.67,364.86a51,51,0,0,1-9.61,4.62c-5.63,2-5.45,5.82-5.45,5.82v3.88s7.85-3.65,9.33-4.9c0,0,2.36-.88,4.37-4.39S358.67,364.86,358.67,364.86Z" transform="translate(-99 -204.53)"/><path class="cls-1" d="M327.15,364.86a51.11,51.11,0,0,0,9.6,4.62c5.64,2,5.45,5.82,5.45,5.82v3.88s-7.85-3.65-9.33-4.9c0,0-2.35-.88-4.36-4.39S327.15,364.86,327.15,364.86Z" transform="translate(-99 -204.53)"/><path class="cls-1" d="M222,391.67a2.73,2.73,0,0,0,.89-.15,16.24,16.24,0,0,1,5.6-1.11c2.72.1,9.67,4.41,10.18,10.67s-.21,16.46-14,20.46c-12.8,3.73-21-10.25-20.62-12.66,0-.24-.15-.45-.18-.69-.27-2.11-1.26-13.13,6-17.09a4.32,4.32,0,0,1,.45-.19c1.14-.37,6-1.82,8-.21a2.72,2.72,0,0,0,.89.47l1.28.39a2.74,2.74,0,0,0,.76.11Z" transform="translate(-99 -204.53)"/><path class="cls-1" d="M236.85,373.23a51.39,51.39,0,0,1-9.61,4.61c-5.63,2-5.45,5.82-5.45,5.82v3.88s7.85-3.64,9.33-4.89c0,0,2.36-.88,4.37-4.39S236.85,373.23,236.85,373.23Z" transform="translate(-99 -204.53)"/><path class="cls-1" d="M205.33,373.23a51.48,51.48,0,0,0,9.6,4.61c5.64,2,5.45,5.82,5.45,5.82v3.88s-7.85-3.64-9.33-4.89c0,0-2.35-.88-4.36-4.39S205.33,373.23,205.33,373.23Z" transform="translate(-99 -204.53)"/><path class="cls-1" d="M260.08,248.85s-.66,6.16-7.38,10.61-3.21,16.41,1.36,21.18,7.76,0,7.76,0a1.23,1.23,0,0,1,1.79-.74c1.39.59,4.5,5.5,8.73-3.85,0,0,2.58-12.64-2.09-18.39A38.76,38.76,0,0,0,260.08,248.85Z" transform="translate(-99 -204.53)"/><path class="cls-1" d="M377,347.91s-.66,6.15-7.39,10.61-3.21,16.4,1.37,21.18,7.76,0,7.76,0a1.24,1.24,0,0,1,1.79-.75c1.39.59,4.49,5.51,8.72-3.84,0,0,2.59-12.64-2.08-18.39A38.7,38.7,0,0,0,377,347.91Z" transform="translate(-99 -204.53)"/><path class="cls-1" d="M107.81,368s3,5.42.06,12.93,6.8,15.27,13.29,16.54,6.33-4.48,6.33-4.48a1.24,1.24,0,0,1,1-1.64c1.47-.32,6.84,1.92,4.93-8.17,0,0-5.16-11.82-12.28-13.84A38.7,38.7,0,0,0,107.81,368Z" transform="translate(-99 -204.53)"/><path class="cls-1" d="M136.09,365.47a12,12,0,0,1,4,8.86c.31,6.07,9.41,8.38,14.26,7.25s3-5,3-5a.93.93,0,0,1,.21-1.45c.91-.67,5.29-.8.85-7.13,0,0-7.2-6.53-12.72-5.71A29.14,29.14,0,0,0,136.09,365.47Z" transform="translate(-99 -204.53)"/><path class="cls-1" d="M201.48,328.82a12.06,12.06,0,0,1-.79,9.71c-2.7,5.44,4.12,11.9,8.9,13.28s5-3,5-3a.93.93,0,0,1,.89-1.16c1.12-.14,5,1.89,4.22-5.81,0,0-3.1-9.21-8.32-11.19A29,29,0,0,0,201.48,328.82Z" transform="translate(-99 -204.53)"/><path class="cls-1" d="M153.39,284.61a12.1,12.1,0,0,1,4,8.87c.31,6.07,9.4,8.38,14.25,7.25s3-5,3-5a.94.94,0,0,1,.2-1.45c.92-.68,5.3-.8.86-7.14,0,0-7.2-6.52-12.72-5.71A29.41,29.41,0,0,0,153.39,284.61Z" transform="translate(-99 -204.53)"/><path class="cls-1" d="M176,335.67a10.93,10.93,0,0,1,1.91,8.63c-.88,5.44,6.75,9.21,11.27,9.13s3.58-3.92,3.58-3.92a.84.84,0,0,1,.46-1.24c.94-.43,4.84.29,2.1-6.17,0,0-5.15-7.15-10.2-7.47A26.56,26.56,0,0,0,176,335.67Z" transform="translate(-99 -204.53)"/><path class="cls-1" d="M141.41,396a10.91,10.91,0,0,1,6.59,5.88c2.47,4.93,10.87,3.53,14.48.82s.62-5.27.62-5.27a.85.85,0,0,1-.36-1.28c.52-.89,4.11-2.59-1.89-6.23,0,0-8.36-2.79-12.65-.1A26.54,26.54,0,0,0,141.41,396Z" transform="translate(-99 -204.53)"/><path class="cls-1" d="M148.13,462.22a10.9,10.9,0,0,1,7.62-4.46c5.45-.84,6.69-9.26,5.23-13.53s-4.82-2.21-4.82-2.21a.85.85,0,0,1-1.33,0c-.69-.76-1.21-4.7-6.51-.11,0,0-5.23,7.09-4,12A26.61,26.61,0,0,0,148.13,462.22Z" transform="translate(-99 -204.53)"/><path class="cls-1" d="M156.56,358.23a10.94,10.94,0,0,1,6.85,5.58c2.69,4.81,11,3,14.5.16s.38-5.29.38-5.29a.85.85,0,0,1-.41-1.26c.47-.92,4-2.78-2.17-6.14,0,0-8.48-2.41-12.64.47A26.5,26.5,0,0,0,156.56,358.23Z" transform="translate(-99 -204.53)"/><path class="cls-1" d="M404.68,476.63a10.92,10.92,0,0,1,5.25-7.1c4.69-2.91,2.53-11.14-.5-14.49s-5.3-.14-5.3-.14a.85.85,0,0,1-1.24.47c-.94-.43-3-3.85-6,2.45,0,0-2,8.58,1.06,12.61A26.54,26.54,0,0,0,404.68,476.63Z" transform="translate(-99 -204.53)"/><path class="cls-1" d="M263.14,327.52s-2.61,4.12-8.91,4.93-8,10.47-6.4,15.43,5.49,2.68,5.49,2.68a1,1,0,0,1,1.53.1c.77.9,1.26,5.45,7.5.31,0,0,6.22-8,4.92-13.71A30.38,30.38,0,0,0,263.14,327.52Z" transform="translate(-99 -204.53)"/><path class="cls-1" d="M338,334s-5.64-2.55-7.78-10.32-14.59-8.16-20.55-5.31-2.39,7.39-2.39,7.39a1.23,1.23,0,0,1,.14,1.93c-1,1.14-6.62,2.56.94,9.49,0,0,11.21,6.39,18.13,3.75A38.73,38.73,0,0,0,338,334Z" transform="translate(-99 -204.53)"/><path class="cls-1" d="M404.43,285.74s-3.84-4.85-2.15-12.74-9.2-14-15.8-14.17-5.52,5.45-5.52,5.45a1.25,1.25,0,0,1-.76,1.79c-1.41.55-7.06-.79-3.54,8.85,0,0,7,10.83,14.36,11.68A38.7,38.7,0,0,0,404.43,285.74Z" transform="translate(-99 -204.53)"/><path class="cls-1" d="M291.33,267.13a9.86,9.86,0,0,1-2.12,7.69c-3,4,1.51,10.21,5.15,12s4.51-1.61,4.51-1.61a.76.76,0,0,1,.89-.8c.93.05,3.75,2.28,4.29-4,0,0-1.1-7.88-5-10.26A23.94,23.94,0,0,0,291.33,267.13Z" transform="translate(-99 -204.53)"/><path class="cls-1" d="M221.45,282.39a10.81,10.81,0,0,1,2.25,8.43c-.63,5.41,7.07,8.81,11.52,8.53s3.37-4,3.37-4a.84.84,0,0,1,.4-1.25c.91-.46,4.8.08,1.82-6.18,0,0-5.4-6.84-10.4-6.94A26.06,26.06,0,0,0,221.45,282.39Z" transform="translate(-99 -204.53)"/><path class="cls-1" d="M282.58,283.17a9.86,9.86,0,0,1-7.78,1.76c-4.92-.77-8.29,6.14-8.19,10.22s3.55,3.21,3.55,3.21a.76.76,0,0,1,1.12.41c.39.85-.24,4.38,5.58,1.88,0,0,6.44-4.69,6.7-9.25A23.88,23.88,0,0,0,282.58,283.17Z" transform="translate(-99 -204.53)"/><path class="cls-1" d="M235.56,309.71a8.12,8.12,0,0,1-5.38,3.7c-4,.91-4.43,7.18-3.12,10.24s3.68,1.37,3.68,1.37a.62.62,0,0,1,1,0c.55.52,1.14,3.4,4.8-.27,0,0,3.47-5.51,2.28-9.06A19.46,19.46,0,0,0,235.56,309.71Z" transform="translate(-99 -204.53)"/><path class="cls-1" d="M314.89,354.48a8.06,8.06,0,0,1-4.83-4.39c-1.8-3.65-8-2.67-10.7-.69s-.49,3.88-.49,3.88a.63.63,0,0,1,.26,1c-.38.66-3.05,1.89,1.36,4.62,0,0,6.16,2.11,9.34.15A19.68,19.68,0,0,0,314.89,354.48Z" transform="translate(-99 -204.53)"/><path class="cls-1" d="M312.42,404.72a10.08,10.08,0,0,1-6-5.47c-2.24-4.57-10-3.34-13.35-.87s-.61,4.85-.61,4.85a.79.79,0,0,1,.31,1.19c-.48.82-3.8,2.36,1.7,5.76,0,0,7.7,2.64,11.67.19A24.41,24.41,0,0,0,312.42,404.72Z" transform="translate(-99 -204.53)"/><path class="cls-1" d="M426.65,445.09a8,8,0,0,1-4.81-4.37c-1.79-3.64-8-2.66-10.66-.69s-.49,3.87-.49,3.87a.62.62,0,0,1,.26.94c-.38.66-3,1.89,1.35,4.6,0,0,6.14,2.11,9.31.15A19.51,19.51,0,0,0,426.65,445.09Z" transform="translate(-99 -204.53)"/><path class="cls-1" d="M482.24,394.53a7.76,7.76,0,0,1-5-4.69c-1.77-4-8.61-2.6-11.64-.22s-.74,4.4-.74,4.4a.67.67,0,0,1,.23,1.06c-.45.76-3.42,2.29,1.25,5.13,0,0,6.61,2.06,10.19-.32A24.8,24.8,0,0,0,482.24,394.53Z" transform="translate(-99 -204.53)"/><path class="cls-1" d="M432.09,370.3S427,372.09,421,368.48s-14.1,3.64-16.13,9,2.94,6.09,2.94,6.09a1.08,1.08,0,0,1,1.26,1.13c.05,1.31-2.64,5.6,6.3,5.41,0,0,10.9-2.72,13.66-8.54A33.76,33.76,0,0,0,432.09,370.3Z" transform="translate(-99 -204.53)"/><path class="cls-1" d="M375.48,471.22s-1.22-5.25,3-10.83-2-14.42-7.17-17-6.38,2.24-6.38,2.24a1.07,1.07,0,0,1-1.26,1.12c-1.31-.09-5.27-3.25-6.08,5.66,0,0,1.48,11.13,7,14.53A33.53,33.53,0,0,0,375.48,471.22Z" transform="translate(-99 -204.53)"/><path class="cls-1" d="M497,422.94s-4.93-2.18-6.83-8.95-12.75-7-17.92-4.52-2.05,6.45-2.05,6.45a1.07,1.07,0,0,1,.14,1.68c-.86,1-5.76,2.26.86,8.26,0,0,9.79,5.51,15.8,3.18A33.85,33.85,0,0,0,497,422.94Z" transform="translate(-99 -204.53)"/><path class="cls-1" d="M458.31,358.68s-2.38,4.83-9.22,6.45-7.55,12.45-5.24,17.73,6.35,2.31,6.35,2.31a1.08,1.08,0,0,1,1.69-.07c1,.89,2,5.84,8.29-.53,0,0,5.9-9.56,3.81-15.66A33.48,33.48,0,0,0,458.31,358.68Z" transform="translate(-99 -204.53)"/><path class="cls-1" d="M363.65,246.65a7.15,7.15,0,0,1-5.56-1.51c-2.88-2.16-7.37,1.11-8.69,3.74s1.18,3.26,1.18,3.26a.55.55,0,0,1,.58.64c0,.67-1.64,2.71,2.92,3.08,0,0,5.69-.81,7.41-3.63A17.42,17.42,0,0,0,363.65,246.65Z" transform="translate(-99 -204.53)"/><path class="cls-1" d="M390.61,237.63a9.06,9.06,0,0,1-7.24.93c-4.41-1.13-8.09,4.86-8.35,8.58s2.94,3.24,2.94,3.24a.7.7,0,0,1,1,.47c.28.8-.6,4,4.92,2.2,0,0,6.27-3.7,6.91-7.84A22,22,0,0,0,390.61,237.63Z" transform="translate(-99 -204.53)"/><path class="cls-1" d="M210.71,291.16a8.1,8.1,0,0,1-2.41,6.07c-2.79,3,.31,8.43,3.11,10.25s3.81-.91,3.81-.91A.62.62,0,0,1,216,306c.75.13,2.84,2.19,3.85-2.89,0,0-.19-6.51-3.14-8.8A19.74,19.74,0,0,0,210.71,291.16Z" transform="translate(-99 -204.53)"/><path class="cls-1" d="M189.08,380.58a8.07,8.07,0,0,1-4.5,4.73c-3.69,1.71-2.85,7.94-.93,10.67s3.87.58,3.87.58a.63.63,0,0,1,1-.24c.64.4,1.82,3.09,4.64-1.25,0,0,2.25-6.11.36-9.34A19.66,19.66,0,0,0,189.08,380.58Z" transform="translate(-99 -204.53)"/><path class="cls-1" d="M142.83,432.88a7.17,7.17,0,0,1,5.59-1.74c3.66.29,5.71-5,5.39-8S151,421,151,421a.56.56,0,0,1-.85-.23c-.34-.61-.09-3.25-4.21-1.07,0,0-4.43,3.82-4.35,7.2A18,18,0,0,0,142.83,432.88Z" transform="translate(-99 -204.53)"/><path class="cls-1" d="M172.6,449.68a7.18,7.18,0,0,1,5.6-1.74c3.65.29,5.7-5,5.38-8s-2.8-2.17-2.8-2.17a.56.56,0,0,1-.85-.23c-.33-.61-.09-3.25-4.2-1.07,0,0-4.44,3.82-4.35,7.2A17.86,17.86,0,0,0,172.6,449.68Z" transform="translate(-99 -204.53)"/><path class="cls-1" d="M187.32,376.24a7.17,7.17,0,0,1,5.59-1.74c3.66.29,5.71-5,5.39-8s-2.8-2.18-2.8-2.18a.56.56,0,0,1-.85-.23c-.34-.6-.09-3.25-4.21-1.07,0,0-4.43,3.82-4.35,7.2A17.93,17.93,0,0,0,187.32,376.24Z" transform="translate(-99 -204.53)"/><path class="cls-1" d="M174.11,319a7.22,7.22,0,0,1,5.74,1.21c3.05,2,7.42-1.58,8.61-4.36s-1.39-3.26-1.39-3.26a.56.56,0,0,1-.63-.62c0-.69,1.51-2.87-3.14-3,0,0-5.74,1.17-7.32,4.16A18.17,18.17,0,0,0,174.11,319Z" transform="translate(-99 -204.53)"/><path class="cls-1" d="M252,312.62a7.22,7.22,0,0,1,3.51,4.7c.94,3.54,6.62,3.71,9.34,2.41s1.12-3.36,1.12-3.36a.56.56,0,0,1-.06-.88c.45-.52,3-1.17-.4-4.32,0,0-5.08-2.91-8.24-1.71A18,18,0,0,0,252,312.62Z" transform="translate(-99 -204.53)"/><path class="cls-1" d="M270.06,325.48a7.2,7.2,0,0,1,.15,5.86c-1.27,3.44,3.26,6.85,6.24,7.36s2.85-2.1,2.85-2.1a.56.56,0,0,1,.46-.75c.67-.16,3.15.79,2.17-3.76,0,0-2.47-5.31-5.74-6.15A17.91,17.91,0,0,0,270.06,325.48Z" transform="translate(-99 -204.53)"/><path class="cls-1" d="M266,356a7.16,7.16,0,0,1-3.87,4.39c-3.27,1.66-2.28,7.24-.44,9.64s3.52.4,3.52.4a.56.56,0,0,1,.85-.24c.6.34,1.76,2.73,4.14-1.27,0,0,1.81-5.57,0-8.42A17.89,17.89,0,0,0,266,356Z" transform="translate(-99 -204.53)"/><path class="cls-1" d="M100.76,404.43a7.2,7.2,0,0,1,4.74,3.45c2,3.11,7.42,1.59,9.64-.45s.07-3.55.07-3.55a.56.56,0,0,1-.32-.82c.29-.63,2.55-2-1.65-4,0,0-5.71-1.28-8.38.81A17.91,17.91,0,0,0,100.76,404.43Z" transform="translate(-99 -204.53)"/><path class="cls-1" d="M234.13,677.9c47.76-15.11,136.68-98,14.87-215a.27.27,0,0,1-.07-.08c-1.06-1.29-31.33-37.22-98.11-28.59-56.92,7.36,13.7-.72,38.22-3.55a1.56,1.56,0,0,0,.24-3c-11.08-3.18-32-9.37-46.06-14.66a1.56,1.56,0,0,1,.95-3l29.91,7.85a1.56,1.56,0,0,0,1.94-1.68c-.64-5.62-2.78-20.48-8.29-29.25a1.55,1.55,0,0,1,2-2.24c4.89,2.65,11.88,10.46,13,33.37a1.54,1.54,0,0,0,1,1.39c7,2.46,49.49,17.85,68.55,35.37a1.54,1.54,0,0,0,2.53-.71c1.2-4.21,3.3-13.84,2.5-27.87-1.09-19.28-6.43-41.41-8.4-42.91s-30-25.54-59.7-24.44c0,0,24.85-3.5,54,14.35a1.55,1.55,0,0,0,2.26-1.9c-4.36-10.48-17.07-37.13-40-55.86a1.55,1.55,0,0,1,1.86-2.48,108.07,108.07,0,0,1,24.27,24.21,1.55,1.55,0,0,0,2.38.16c3.53-3.8,13-15.83,13.24-35.83,0,0-1,32.92-7.32,39.34a1.52,1.52,0,0,0-.17,1.87c3.39,5.43,17.6,30.13,26.74,75.81a1.46,1.46,0,0,0,.38.75c1.24,1.33,6,5.68,6.14-5.5.15-12.36,9.75-74.07,14.61-85.33a1.53,1.53,0,0,0-.52-1.88c-5.46-3.82-29.21-21.37-26.14-35.43,0,0-4.47,5.42,27.65,28.45A1.55,1.55,0,0,0,291,319c4.38-9.59,26.79-56.85,50.19-74a1.56,1.56,0,0,1,2,2.34c-7.11,7.11-17.05,17.59-20.61,24a1.55,1.55,0,0,0,2.08,2.13c2.29-1.2,5.62-2.88,9.62-4.73a1.56,1.56,0,0,1,1.45,2.75c-5.61,3.35-10.3,6.74-11.58,9.31a2,2,0,0,1-.2.31c-1.75,2-22.08,25.42-27.82,42.74-5.93,17.88-14.53,49.53-10.52,63.21a1.5,1.5,0,0,1,0,1l-2,5.26s17.79-24,51.57-37.21a1.56,1.56,0,0,1,1.34,2.8c-18.31,10.5-48.31,29.12-48.3,38.4a1.58,1.58,0,0,1-.17.77c-1.63,3-12.93,24.83-6.9,35.71a1.48,1.48,0,0,0,.78.68c1.5.59,6.23,1.95,14.22-.23,9.45-2.57,54.85-17,63.55-16a1.52,1.52,0,0,0,1.46-.71,116.09,116.09,0,0,1,11-14.55,1.56,1.56,0,0,1,2.49,1.85,50.16,50.16,0,0,0-5.16,10.54,1.57,1.57,0,0,0,1.59,2.08l46.76-3.56a1.55,1.55,0,0,0,1.16-.66,60.13,60.13,0,0,1,5-6.2,1.55,1.55,0,0,1,2.34,2,36,36,0,0,0-3.45,4.76c-2.46,4.62,34.81,3.8,34.81,3.8S320.62,423.11,297,442.18a1.57,1.57,0,0,0-.48,1.81c-3.12,18.23,81.4,151.12-15.7,222" transform="translate(-99 -204.53)"/><path class="cls-1" d="M398.69,438.27s-52.43-10.78-57.94-9.82-45.69,9.82-45.69,9.82L292,444.88C290.39,447.52,306.17,424.31,398.69,438.27Z" transform="translate(-99 -204.53)"/><path class="cls-1" d="M362.94,638.72V648c0,7.45.66,12.07,2,13.89q3.7,4.58,14.48,8.87a59.14,59.14,0,0,0,22.17,4.3q14.69,0,23.95-7.93t9.27-18.91q0-8.72-5.42-14t-20.67-8.43q-28.38-5.7-37.5-10t-13.69-11.42Q353,597.29,353,587.14q0-19,13.78-30.83t39.05-11.84a106.14,106.14,0,0,1,39.85,8q-1.23,9.7-2,32.51h-8.55q-.3-12.54-2.71-16.54-3.27-5.26-11.95-9.55a41.28,41.28,0,0,0-18.49-4.28q-12.94,0-20.7,6.64a21,21,0,0,0-7.75,16.63q0,9.57,6.13,14.42t33.94,10.56q20.52,4.14,27.09,7.7a26.44,26.44,0,0,1,10.55,10.83,34.08,34.08,0,0,1,4,16.67q0,19.25-16.47,33.2t-44,14q-17.53,0-39.35-5.48c-2.57-.66-3.85-1.65-3.85-3l.43-2a49.44,49.44,0,0,0,1-7.57q1.28-13.87,1.28-21.58l-.14-6.86Z" transform="translate(-99 -204.53)"/><path class="cls-1" d="M519.07,543.9l3.42,2.13q-1,10.69-1.28,23.53-1,41.64-1,61.46,0,18.53,1.28,31.65c.38,3.42,1.29,5.8,2.71,7.13s4.85,2.33,10.27,3l9.7,1.29v8.27q-20.82-1-37.93-1-16.83,0-33.94,1v-8.27l12.26-1.29q7.14-.57,8.77-2.64c1.09-1.38,1.79-6,2.07-13.8q.72-18.15.71-50,0-22.17-.71-34.17c-.19-3-1-5-2.49-6.29S488.13,564,483,564H472.3v-8.27q17.4-2.54,25.6-4.65A193.07,193.07,0,0,0,519.07,543.9Zm-.14-35.51" transform="translate(-99 -204.53)"/><path class="cls-1" d="M685,637.4a92,92,0,0,0-1.42,16.13A152.92,152.92,0,0,0,685,673.05a157.33,157.33,0,0,1-28.34,7.87,162.77,162.77,0,0,1-30.22,3q-22.26,0-39.09-8.73a62.48,62.48,0,0,1-25.89-24.23q-9-15.51-9-35.23,0-20.37,9.71-36.26a66.06,66.06,0,0,1,27.07-24.7q17.34-8.82,43.94-8.82a131.49,131.49,0,0,1,20,1.41A202.6,202.6,0,0,1,676.94,553l8,2.17q-2.49,10-4,27.92h-5.94v-6.23q0-9.24-1.51-10.84-2.84-3-15-7.5A80.1,80.1,0,0,0,630.73,554q-27.72,0-42.43,14.9-16,16.21-16,42.91,0,25.65,14.42,43.19,17,20.75,46.31,20.75,15.27,0,33.1-6.72.57-7.94.56-16.91,0-11.62-.37-13.38a3.14,3.14,0,0,0-1.37-2.27c-.66-.34-3.95-.77-9.86-1.27l-11.12-1v-5.94q21.59.95,32.06.94a110.18,110.18,0,0,0,15.56-.94v4.72Z" transform="translate(-99 -204.53)"/><path class="cls-1" d="M751.39,571.7,773,552.59a25.63,25.63,0,0,1,8.14-5,59.45,59.45,0,0,1,18.85-3.13q15.28,0,26.42,6.2t16,16.11q4.86,9.91,4.86,31l-.57,44.92q0,23.24,2,26.8,2.7,4.57,10.49,4.57h10.2v8.27q-15.21-1-26.3-1-10.82,0-23.18,1,2.71-27.81,2.71-75.15,0-19.1-3.36-27.09a27.18,27.18,0,0,0-11.28-12.83q-7.93-4.85-19.08-4.85-13.86,0-23.5,7t-11.93,15.4Q752,590.39,752,613.91q0,26.08.43,48.48c.1,4.46.77,7.27,2,8.41q3.58,3.29,11.76,3.28h10.18v8.27q-24.14-1-38.43-1-15.13,0-34.43,1v-8.27h10.27q10.54,0,12.33-4.92T727.86,610q0-24.36-.57-38.17c-.19-3-.95-5.12-2.28-6.26s-5.08-1.71-11.26-1.71H703.48v-8.27a172.42,172.42,0,0,0,21.9-3.85,160.18,160.18,0,0,0,21.75-7.42,6.07,6.07,0,0,1,2.41-.57c1.52,0,2.28,1.1,2.28,3.28l-.14,5.42Z" transform="translate(-99 -204.53)"/><path class="cls-1" d="M287.16,661.11c-10.2,9.43-27.84,14.63-37.78,17.11q-30.12,7.5-53.33,2.41t-39.16-20.92q-16-15.83-21.84-39.45t.64-45.17q6.51-21.54,24.75-37.38T206.21,515a113.53,113.53,0,0,1,27.53-3.36,134,134,0,0,1,28,3.05,2.17,2.17,0,0,1,1.33.88q2.65,3.76,5.51,7.42a2.15,2.15,0,0,1,.13,2.5h0a2.19,2.19,0,0,1-2.65.86,61.27,61.27,0,0,0-23-4.58,132.38,132.38,0,0,0-30.54,3.92A72.75,72.75,0,0,0,179,544.51a70.3,70.3,0,0,0-19.59,33.3q-5,19.2.36,40.82,7.68,30.78,30.45,44.61t53,6.3a81.84,81.84,0,0,0,22-8.93c6.43-3.79,18.43-7.63,22.72-14.15m7.61,1" transform="translate(-99 -204.53)"/><path class="cls-1" d="M153.71,742.07l19.45,57.6,19.51-58c1-3,1.78-5.16,2.29-6.36a8.53,8.53,0,0,1,2.52-3.22,7.35,7.35,0,0,1,4.8-1.44,8.05,8.05,0,0,1,4.13,1.12,8.16,8.16,0,0,1,3,3,7.22,7.22,0,0,1,1.09,3.72,12.43,12.43,0,0,1-.35,2.78,26.72,26.72,0,0,1-.88,2.93c-.36,1-.71,1.94-1.06,3l-20.8,56.13q-1.11,3.22-2.23,6.13a26,26,0,0,1-2.57,5.09,11.58,11.58,0,0,1-3.9,3.61,11.77,11.77,0,0,1-5.95,1.4,12,12,0,0,1-5.94-1.37,11.27,11.27,0,0,1-3.93-3.64,26.4,26.4,0,0,1-2.61-5.12q-1.11-2.88-2.22-6.1L137.6,747.58c-.36-1-.72-2-1.09-3a24.46,24.46,0,0,1-.94-3.16,13.83,13.83,0,0,1-.38-2.88,7.6,7.6,0,0,1,2.41-5.44,8,8,0,0,1,6-2.47q4.45,0,6.3,2.73A36.45,36.45,0,0,1,153.71,742.07Z" transform="translate(-99 -204.53)"/><path class="cls-1" d="M328.34,808.28l-4.1-10.78H289.32l-4.1,11c-1.61,4.29-3,7.19-4.11,8.7s-3,2.25-5.56,2.25a8.16,8.16,0,0,1-5.8-2.4,7.36,7.36,0,0,1-2.52-5.45,12.15,12.15,0,0,1,.58-3.63q.58-1.87,1.94-5.22l22-55.78c.62-1.6,1.38-3.52,2.26-5.77a28.17,28.17,0,0,1,2.81-5.59,11.35,11.35,0,0,1,3.92-3.61,13.89,13.89,0,0,1,12.07,0,11.71,11.71,0,0,1,3.93,3.55,24.78,24.78,0,0,1,2.52,4.65c.68,1.67,1.55,3.88,2.61,6.66l22.44,55.42c1.76,4.22,2.63,7.29,2.63,9.2a7.61,7.61,0,0,1-2.49,5.48,8.18,8.18,0,0,1-6,2.49,7.79,7.79,0,0,1-3.52-.73,7.33,7.33,0,0,1-2.46-2,18.42,18.42,0,0,1-2.14-3.87Q329.16,810.27,328.34,808.28Zm-34.45-23.85h25.66L306.6,749Z" transform="translate(-99 -204.53)"/><path class="cls-1" d="M432.66,741.19v62.52h35.27q4.21,0,6.48,2a6.69,6.69,0,0,1,2.25,5.16,6.49,6.49,0,0,1-2.22,5.12q-2.24,2-6.51,2h-42q-5.69,0-8.17-2.52t-2.49-8.15V741.19q0-5.27,2.37-7.91a8,8,0,0,1,6.24-2.64,8.29,8.29,0,0,1,6.36,2.61Q432.66,735.86,432.66,741.19Z" transform="translate(-99 -204.53)"/><path class="cls-1" d="M561.06,741.19v62.52h35.27c2.82,0,5,.68,6.48,2a6.69,6.69,0,0,1,2.25,5.16,6.49,6.49,0,0,1-2.22,5.12q-2.24,2-6.51,2h-42q-5.69,0-8.17-2.52t-2.49-8.15V741.19q0-5.27,2.37-7.91a8,8,0,0,1,6.24-2.64,8.29,8.29,0,0,1,6.36,2.61Q561.06,735.86,561.06,741.19Z" transform="translate(-99 -204.53)"/><path class="cls-1" d="M729,745.53h-39.2v21.09h36.1q4,0,5.94,1.79a6.07,6.07,0,0,1,2,4.72,6.3,6.3,0,0,1-1.94,4.77q-1.93,1.85-6,1.85h-36.1v24.43h40.55c2.73,0,4.79.64,6.18,1.9a6.53,6.53,0,0,1,2.08,5.07,6.39,6.39,0,0,1-2.08,5q-2.09,1.9-6.18,1.91H683.07q-5.69,0-8.17-2.52t-2.49-8.15V742.77a14.5,14.5,0,0,1,1.11-6.12,7,7,0,0,1,3.49-3.46,14.68,14.68,0,0,1,6.06-1.08H729c2.77,0,4.83.61,6.18,1.85a6.22,6.22,0,0,1,2,4.83,6.29,6.29,0,0,1-2,4.89Q733.17,745.53,729,745.53Z" transform="translate(-99 -204.53)"/><path class="cls-1" d="M827.53,808.87V781.62l-21-32.52a69.33,69.33,0,0,1-3.9-6.85,10.49,10.49,0,0,1-1.14-4.28,6.83,6.83,0,0,1,2.32-5.16,8,8,0,0,1,5.71-2.17,7,7,0,0,1,5.42,2,59.87,59.87,0,0,1,5.54,8.05l16,26.08,16.23-26.08,2.46-4a26.37,26.37,0,0,1,2.2-3.08,8.68,8.68,0,0,1,2.67-2.19,8.29,8.29,0,0,1,9,1.37,6.74,6.74,0,0,1,2.2,5,10.36,10.36,0,0,1-1.12,4.57,57.32,57.32,0,0,1-3.81,6.33l-21.5,33v27.25q0,5.32-2.46,8a8.82,8.82,0,0,1-12.54,0Q827.53,814.26,827.53,808.87Z" transform="translate(-99 -204.53)"/><path class="cls-1" d="M502.66,494.57a2.55,2.55,0,0,1-.9-.16,16.76,16.76,0,0,0-5.65-1.11c-2.75.1-9.77,4.45-10.28,10.77s.22,16.62,14.09,20.65c12.93,3.76,21.2-10.35,20.82-12.78,0-.24.15-.45.18-.69.27-2.13,1.28-13.26-6.1-17.25a2.88,2.88,0,0,0-.45-.19c-1.15-.38-6.08-1.84-8.07-.22a2.82,2.82,0,0,1-.89.47l-1.29.4a2.87,2.87,0,0,1-.77.11Z" transform="translate(-99 -204.53)"/><path class="cls-1" d="M487.64,476a51.8,51.8,0,0,0,9.7,4.66c5.68,2.05,5.5,5.88,5.5,5.88v3.91s-7.93-3.67-9.42-4.94c0,0-2.38-.89-4.41-4.43S487.64,476,487.64,476Z" transform="translate(-99 -204.53)"/><path class="cls-1" d="M519.46,476a51.8,51.8,0,0,1-9.7,4.66c-5.68,2.05-5.5,5.88-5.5,5.88v3.91s7.93-3.67,9.42-4.94c0,0,2.38-.89,4.4-4.43S519.46,476,519.46,476Z" transform="translate(-99 -204.53)"/></svg>